<?xml version="1.0" standalone="no"?>
<!DOCTYPE svg PUBLIC "-//W3C//DTD SVG 20010904//EN"
 "http://www.w3.org/TR/2001/REC-SVG-20010904/DTD/svg10.dtd">
<svg version="1.0" xmlns="http://www.w3.org/2000/svg"
 width="1280.000000pt" height="1280.000000pt" viewBox="0 0 1280.000000 1280.000000"
 preserveAspectRatio="xMidYMid meet">
<metadata>
Created by potrace 1.11, written by Peter Selinger 2001-2013
</metadata>
<g transform="translate(0.000000,1280.000000) scale(0.100000,-0.100000)"
fill="#000000" stroke="none">
<path d="M11223 11685 c-69 -19 -153 -62 -254 -131 -72 -49 -217 -164 -274
-217 -41 -39 -306 -248 -460 -364 -389 -291 -907 -646 -1190 -816 -300 -180
-729 -327 -1515 -521 -161 -39 -477 -116 -500 -121 -8 -2 -116 -28 -240 -58
-592 -146 -951 -266 -1240 -413 -207 -106 -354 -210 -497 -352 -327 -323 -469
-637 -529 -1162 -10 -93 -13 -481 -3 -550 15 -109 18 -122 39 -205 19 -72 139
-386 195 -510 43 -93 175 -406 175 -412 0 -17 -181 -275 -240 -342 -72 -81
-202 -210 -285 -282 -49 -43 -71 -61 -220 -185 -39 -33 -86 -73 -105 -90 -19
-17 -82 -73 -140 -124 -118 -105 -209 -187 -430 -388 -86 -80 -128 -118 -305
-284 -33 -31 -76 -71 -95 -88 -19 -18 -91 -85 -159 -149 -196 -183 -252 -235
-310 -287 -30 -27 -64 -58 -75 -69 -30 -28 -326 -293 -384 -343 -159 -137
-248 -183 -397 -203 -61 -8 -646 -3 -745 6 -87 9 -399 10 -467 2 -287 -33
-453 -165 -544 -432 -33 -97 -33 -253 0 -337 60 -155 217 -315 431 -440 270
-158 791 -369 1290 -522 187 -57 422 -121 515 -140 11 -3 52 -11 90 -20 110
-23 124 -25 220 -33 182 -16 750 -7 825 12 8 2 38 6 65 10 69 8 225 48 315 81
224 80 432 203 828 492 337 244 578 398 947 602 l170 94 395 3 c526 3 1009 11
1095 18 178 15 293 48 460 132 215 108 336 205 429 347 88 132 157 340 186
552 6 44 12 89 14 100 2 10 7 48 11 84 3 36 8 76 10 90 2 14 7 50 10 80 8 68
10 87 25 177 l12 71 36 -5 c48 -6 273 -43 292 -48 77 -17 274 -23 390 -12 234
23 488 110 663 229 73 50 177 147 221 207 19 26 60 97 90 158 79 159 124 200
280 257 155 56 296 164 376 287 100 154 101 297 4 415 -31 38 -45 84 -26 84 4
0 21 13 37 28 17 15 44 38 60 51 53 41 157 134 218 196 179 181 240 319 236
533 -2 74 1 113 10 127 20 32 72 61 191 110 131 53 212 93 300 148 293 184
552 431 645 617 52 105 69 173 69 285 1 124 -18 182 -84 270 -44 58 -60 87
-66 122 -3 15 34 71 136 203 106 138 168 261 188 375 9 50 8 234 -1 299 -16
112 -64 245 -113 314 -18 26 -45 63 -59 84 -15 20 -28 45 -29 55 -5 33 23 93
108 233 140 228 221 408 245 543 13 69 7 199 -10 247 -46 130 -170 229 -295
236 -140 8 -275 -62 -544 -281 -241 -196 -428 -321 -496 -332 -32 -5 -39 -2
-83 45 -55 59 -151 197 -151 218 0 26 46 118 180 359 112 202 171 341 199 469
21 94 19 170 -5 258 -60 216 -182 301 -361 253z m45 -413 c2 -32 -8 -71 -44
-160 -188 -473 -493 -839 -1053 -1260 -466 -350 -939 -594 -1556 -800 -171
-57 -460 -143 -590 -176 -71 -17 -658 -168 -860 -221 -456 -118 -687 -198
-970 -335 -631 -304 -824 -495 -934 -925 -56 -218 -69 -492 -32 -655 29 -129
84 -241 191 -390 99 -138 135 -207 120 -225 -19 -23 -78 -35 -174 -35 -140 0
-172 26 -273 220 -103 197 -203 448 -218 544 -19 121 -23 205 -20 461 3 318
14 412 64 563 136 412 349 661 728 851 255 129 632 254 1153 385 80 20 170 43
200 51 30 8 93 24 140 35 509 117 645 149 830 197 256 65 536 144 640 179 171
58 388 171 725 377 149 91 564 360 600 389 6 4 108 78 229 163 320 228 484
357 771 604 157 136 270 213 305 209 22 -3 25 -9 28 -46z m1197 -961 c22 -72
-141 -388 -334 -646 -74 -100 -321 -355 -416 -430 -27 -22 -59 -48 -70 -58
-37 -35 -200 -153 -305 -224 -457 -305 -1008 -547 -1681 -737 -161 -46 -482
-126 -564 -142 -11 -2 -51 -10 -90 -19 -38 -8 -218 -42 -400 -75 -430 -78
-447 -81 -735 -151 -506 -123 -941 -285 -1165 -434 -313 -208 -532 -709 -520
-1186 5 -185 60 -320 197 -488 186 -227 203 -270 202 -501 -1 -187 -26 -228
-130 -215 -79 10 -143 30 -160 52 -103 130 -362 852 -470 1310 -11 44 -13 253
-4 313 5 30 11 71 13 90 49 369 160 696 301 883 130 173 336 320 591 421 39
16 79 32 90 37 146 63 654 195 1016 264 13 3 47 9 74 15 57 12 405 76 450 83
34 5 43 7 240 42 77 13 154 26 170 29 268 46 333 57 347 62 10 3 30 7 45 10
16 3 100 21 188 40 613 136 973 300 1820 828 308 191 580 372 785 520 69 49
127 93 130 96 14 17 204 152 264 188 77 46 111 53 121 23z m-1427 -325 c24 -8
52 -59 52 -95 0 -26 -51 -84 -115 -130 -158 -117 -847 -494 -1127 -619 -109
-48 -179 -64 -192 -44 -4 7 138 106 264 183 180 109 566 382 645 455 102 95
282 217 358 244 51 18 73 19 115 6z m1195 -873 c28 -30 72 -122 84 -175 4 -18
7 -69 7 -113 0 -92 -23 -163 -81 -247 -167 -244 -657 -566 -1124 -738 -348
-130 -918 -267 -1474 -356 -16 -2 -55 -9 -85 -14 -30 -6 -75 -13 -100 -16 -25
-3 -56 -7 -70 -10 -76 -13 -222 -16 -229 -5 -10 15 5 123 25 186 32 102 70
122 357 195 545 136 1276 418 1615 621 127 77 415 272 582 394 267 197 429
305 455 305 6 0 23 -12 38 -27z m-149 -1301 c32 -29 54 -89 49 -135 -9 -74
-60 -154 -173 -268 -270 -271 -513 -409 -895 -506 -55 -14 -111 -27 -125 -29
-14 -3 -68 -13 -120 -24 -204 -42 -629 -107 -890 -136 -30 -3 -66 -8 -80 -10
-50 -9 -337 -17 -373 -10 -67 13 -101 86 -123 266 -13 111 -12 129 5 134 25 8
228 41 436 71 22 3 63 10 90 15 28 6 69 12 93 15 23 3 91 15 150 26 59 12 116
23 127 25 18 3 75 15 145 30 45 9 194 46 285 71 381 102 686 215 1000 371 273
135 336 150 399 94z m-3260 -243 c-69 -140 -147 -253 -188 -273 -55 -26 -224
-58 -481 -91 -49 -7 -103 -13 -275 -31 -25 -3 -63 -7 -85 -9 -22 -2 -65 -7
-95 -10 -30 -3 -75 -7 -100 -10 -25 -3 -70 -7 -100 -10 -68 -7 -118 -12 -240
-24 -231 -25 -340 -25 -340 -2 0 29 82 79 265 162 31 13 311 108 390 130 188
55 530 142 599 153 17 3 63 12 101 21 39 9 79 18 90 19 11 2 36 6 55 10 43 8
85 15 130 22 19 3 73 12 120 20 47 8 108 17 135 20 28 4 52 8 55 11 2 2 6 0 8
-5 1 -5 -18 -51 -44 -103z m-3138 -16 c-10 -56 -65 -212 -89 -255 -21 -39 -42
-52 -33 -20 3 9 12 44 20 77 24 96 85 235 103 235 3 0 2 -17 -1 -37z m3244
-533 c24 -24 93 -160 110 -217 12 -40 11 -45 -12 -80 -51 -77 -216 -181 -328
-207 -36 -8 -101 -18 -145 -21 -44 -4 -82 -8 -85 -10 -3 -2 -52 -6 -110 -10
-58 -3 -121 -8 -140 -10 -19 -2 -89 -6 -155 -10 -66 -3 -145 -8 -175 -10 -30
-3 -134 -7 -230 -10 -96 -3 -218 -7 -270 -10 -152 -7 -542 -18 -705 -19 l-150
-1 2 107 c3 158 34 214 134 247 78 25 137 31 334 36 207 5 519 15 585 20 25 2
88 6 140 10 101 6 159 11 255 21 33 3 76 7 95 9 70 7 165 17 180 20 8 1 40 6
70 10 243 30 418 71 480 110 40 25 77 43 93 44 4 1 16 -8 27 -19z m1938 -584
c21 -19 23 -28 19 -81 -11 -135 -133 -294 -335 -434 -38 -26 -125 -59 -179
-66 -21 -3 -48 -8 -59 -10 -12 -3 -82 -7 -155 -11 -74 -3 -168 -7 -209 -9
-112 -6 -471 -6 -505 0 -16 3 -44 7 -61 10 -17 3 -39 13 -48 23 -14 17 -70
191 -110 346 -25 94 -20 97 164 111 41 3 89 7 105 9 17 2 59 7 95 11 36 4 72
9 80 10 8 1 47 6 85 9 39 4 81 9 95 11 14 2 50 7 80 10 30 3 64 7 75 9 11 2
51 7 88 11 37 3 76 8 85 10 9 1 46 6 82 10 36 3 72 8 80 10 8 2 49 7 90 10 41
4 78 9 81 11 4 2 60 6 125 10 66 3 120 7 121 8 1 1 21 0 45 -2 26 -3 52 -13
66 -26z m-2002 -277 c30 -16 76 -111 82 -169 14 -153 -170 -277 -453 -304 -33
-3 -91 -8 -130 -11 -38 -3 -108 -8 -155 -11 -47 -4 -367 -8 -712 -9 l-627 -2
-42 46 c-23 25 -72 78 -109 117 -151 159 -185 226 -122 238 50 9 188 18 492
31 120 5 219 8 600 20 347 11 476 15 555 20 44 2 132 7 195 10 63 3 131 8 150
10 19 2 66 7 103 10 38 3 78 10 90 14 25 10 53 6 83 -10z m-3248 -425 c15 -10
32 -23 38 -29 44 -43 173 -382 176 -461 2 -56 -18 -84 -89 -124 -110 -62 -199
-126 -528 -381 -132 -102 -255 -195 -273 -208 l-33 -23 -33 26 c-19 14 -40 31
-48 38 -7 7 -38 33 -68 58 -30 25 -61 51 -68 57 -8 7 -44 34 -80 60 -37 26
-70 52 -74 58 -22 30 -4 59 100 167 59 61 122 128 141 147 58 60 200 229 322
381 140 175 202 230 284 251 53 14 203 3 233 -17z m4242 -249 c290 -8 450 -17
526 -31 49 -9 85 -44 89 -85 3 -31 -3 -44 -41 -87 -85 -97 -217 -140 -484
-159 -177 -12 -502 -6 -660 13 -253 29 -423 66 -487 105 -27 17 -33 27 -33 56
0 74 81 136 210 161 89 18 127 21 290 28 85 4 156 7 157 8 2 2 186 -2 433 -9z
m-1596 -184 c82 -14 118 -31 144 -68 34 -50 40 -83 26 -141 -37 -144 -122
-223 -272 -252 -58 -12 -289 -9 -347 3 -11 3 -42 8 -70 11 -27 4 -57 9 -65 11
-8 2 -31 6 -50 9 -31 5 -162 29 -215 40 -146 31 -190 41 -263 62 -176 51 -242
100 -242 180 0 127 36 137 560 150 151 3 276 7 277 8 9 7 465 -5 517 -13z
m671 -464 c11 -3 56 -10 100 -17 44 -6 92 -13 108 -16 38 -6 122 -12 252 -19
319 -16 329 -18 344 -56 12 -35 2 -66 -40 -113 -114 -129 -311 -230 -539 -276
-150 -30 -355 -29 -475 2 -22 6 -51 12 -64 14 -33 7 -263 83 -280 93 -22 14 6
51 133 175 123 120 225 201 271 216 29 9 150 7 190 -3z m-2080 -160 c11 -2 47
-8 80 -12 106 -12 297 -56 415 -95 344 -113 582 -302 605 -480 3 -25 8 -62 11
-82 10 -65 11 -450 2 -533 -33 -293 -146 -462 -410 -611 -114 -65 -206 -94
-368 -118 -156 -23 -1013 -25 -1150 -2 -14 3 -57 10 -96 16 -135 22 -165 61
-190 250 -27 208 -84 407 -178 625 -54 123 -56 128 -155 311 -101 186 -102
184 69 335 295 260 522 371 813 395 39 4 74 8 76 10 6 5 452 -3 476 -9z
m-2665 -335 c207 -109 526 -372 686 -564 171 -205 296 -480 341 -748 23 -139
23 -422 0 -475 -26 -58 -36 -66 -211 -176 -156 -97 -266 -174 -636 -442 -281
-204 -337 -241 -490 -319 -162 -82 -373 -147 -570 -173 -25 -3 -67 -10 -95
-15 -171 -31 -318 -30 -550 5 -49 7 -112 16 -139 20 -596 76 -1844 556 -2115
813 -91 86 -103 156 -45 271 36 72 101 150 126 152 7 0 22 3 33 5 25 5 217 5
265 0 19 -2 87 -7 150 -11 63 -4 133 -9 155 -10 157 -14 319 -20 495 -19 227
1 298 13 441 74 64 27 187 106 260 168 120 100 305 257 309 261 3 3 41 37 85
76 68 59 129 114 179 160 6 6 90 82 186 170 96 88 198 181 225 206 28 26 61
57 75 69 14 12 44 39 67 61 34 32 249 217 373 322 64 55 198 151 224 162 37
16 89 3 176 -43z"/>
</g>
</svg>
